<?xml version="1.0" encoding="UTF-8"?>
<svg xmlns="http://www.w3.org/2000/svg" xmlns:xlink="http://www.w3.org/1999/xlink" width="48pt" height="48pt" viewBox="0 0 48 48" version="1.1">
<g id="hat">
<path style=" stroke:none;fill-rule:nonzero;fill:rgb(81.176471%,84.705882%,86.27451%);fill-opacity:1;" d="M 45 39 L 23 39 L 23 36 C 23 36 26.042969 29 34 29 C 41.953125 29 45 36 45 36 Z M 34 26 C 37.3125 26 40 23.3125 40 20 C 40 16.6875 37.3125 14 34 14 C 30.6875 14 28 16.6875 28 20 C 28 23.3125 30.6875 26 34 26 "/>
<path style=" stroke:none;fill-rule:nonzero;fill:rgb(32.941176%,43.137255%,47.843137%);fill-opacity:1;" d="M 24 16 C 24 19.867188 20.867188 23 17 23 C 13.132812 23 10 19.867188 10 16 C 10 12.132812 13.132812 9 17 9 C 20.867188 9 24 12.132812 24 16 "/>
<path class="accent" fill="rgb(32.156863%,72.54902%,81.960784%)" d="M 31 35 C 31 35 27.125 26 17 26 C 6.875 26 3 35 3 35 L 3 39 L 31 39 Z M 31 35 "/>
</g>
</svg>
