<?xml version="1.0" encoding="UTF-8"?>
<svg xmlns="http://www.w3.org/2000/svg" xmlns:xlink="http://www.w3.org/1999/xlink" width="48pt" height="48pt" viewBox="0 0 48 48" version="1.1">
<g id="hat">
<path stroke="none" fill="rgb(21.568627%,27.843137%,30.980392%)" fill-opacity="1" d="M 40 35 L 8 35 L 8 22 C 8 13.5625 14.898438 9 23.40625 9 L 24.59375 9 C 33.101562 9 40 13.5625 40 22 Z M 40 35 "/>
<path style=" stroke:none;fill-rule:nonzero;fill:rgb(21.568627%,27.843137%,30.980392%);fill-opacity:1;" d="M 44 28 C 42 28 33 33 24 33 C 15 33 6 28 4 28 C 2 28 2 30 2 30 C 2 30 2 38 11 38 C 18 38 15 38 24 38 C 33 38 31 38 38 38 C 46 38 46 30 46 30 C 46 30 46 28 44 28 Z M 44 28 "/>
<path class="accent" stroke="none" fill="rgb(32.156863%,72.54902%,81.960784%)" fill-opacity="1" d="M 24 33 C 30.042969 33 36.074219 30.75 40 29.269531 L 40 27 L 8 27 L 8 29.269531 C 11.925781 30.75 17.957031 33 24 33 Z M 24 33 "/>
</g>
</svg>
