<?xml version="1.0" encoding="UTF-8"?>
<svg xmlns="http://www.w3.org/2000/svg" xmlns:xlink="http://www.w3.org/1999/xlink" width="48pt" height="48pt" viewBox="0 0 48 48" version="1.1">
<g id="surface21588561">
<path class="accent" style=" stroke:none;fill-rule:nonzero;fill:rgb(32.156863%,72.54902%,81.960784%);fill-opacity:1;" d="M 9 28.800781 L 10.800781 28.800781 L 10.800781 29.398438 L 9 29.398438 Z M 9 28.800781 "/>
<path style=" stroke:none;fill-rule:nonzero;fill:rgb(69.019608%,75.686275%,83.137255%);fill-opacity:1;" d="M 19.5 33.300781 L 28.5 33.300781 L 28.5 41.101562 L 19.5 41.101562 Z M 19.5 33.300781 "/>
<path style=" stroke:none;fill-rule:nonzero;fill:rgb(40%,47.45098%,56.078431%);fill-opacity:1;" d="M 28.199219 33.601562 L 28.199219 40.800781 L 19.800781 40.800781 L 19.800781 33.601562 L 28.199219 33.601562 M 28.800781 33 L 19.199219 33 L 19.199219 41.398438 L 28.800781 41.398438 Z M 28.800781 33 "/>
<path style=" stroke:none;fill-rule:nonzero;fill:rgb(20.392157%,28.627451%,36.862745%);fill-opacity:1;" d="M 1.5 4.5 L 46.5 4.5 L 46.5 36.300781 L 1.5 36.300781 Z M 1.5 4.5 "/>
<path style=" stroke:none;fill-rule:nonzero;fill:rgb(40%,47.45098%,56.078431%);fill-opacity:1;" d="M 46.199219 4.800781 L 46.199219 36 L 1.800781 36 L 1.800781 4.800781 L 46.199219 4.800781 M 46.800781 4.199219 L 1.199219 4.199219 L 1.199219 36.601562 L 46.800781 36.601562 Z M 46.800781 4.199219 "/>
<path style=" stroke:none;fill-rule:nonzero;fill:rgb(40%,47.45098%,56.078431%);fill-opacity:1;" d="M 1.199219 30.601562 L 46.800781 30.601562 L 46.800781 36.601562 L 1.199219 36.601562 Z M 37.199219 43.800781 L 10.800781 43.800781 C 10.800781 41.820312 12.421875 40.199219 14.398438 40.199219 L 33.601562 40.199219 C 35.578125 40.199219 37.199219 41.820312 37.199219 43.800781 Z M 37.199219 43.800781 "/>
<path class="accent" style=" stroke:none;fill-rule:nonzero;fill:rgb(32.156863%,72.54902%,81.960784%);fill-opacity:1;" d="M 40.800781 33 L 44.398438 33 L 44.398438 34.199219 L 40.800781 34.199219 Z M 40.800781 33 "/>
<path class="accent" style=" stroke:none;fill-rule:nonzero;fill:rgb(32.156863%,72.54902%,81.960784%);fill-opacity:1;" d="M 27 27.121094 L 19.199219 11.578125 L 15.960938 18.601562 L 1.800781 18.601562 L 1.800781 17.398438 L 15.238281 17.398438 L 19.199219 8.820312 L 27 24.480469 L 30.839844 17.398438 L 46.199219 17.398438 L 46.199219 18.601562 L 31.558594 18.601562 Z M 27 27.121094 "/>
</g>
</svg>
